<svg xmlns="http://www.w3.org/2000/svg" version="1.1" xmlns:xlink="http://www.w3.org/1999/xlink" xmlns:svgjs="http://svgjs.com/svgjs" width="1000" height="1000"><rect width="1000" height="1000" rx="500" ry="500" fill="#b0b0b0"></rect><g transform="matrix(3.723404255319149,0,0,3.723404255319149,150,243.0851115774601)"><svg xmlns="http://www.w3.org/2000/svg" version="1.1" xmlns:xlink="http://www.w3.org/1999/xlink" xmlns:svgjs="http://svgjs.com/svgjs" width="188" height="138"><svg xmlns="http://www.w3.org/2000/svg" viewBox="0 0 188 138"><defs><style>.a{fill:#008f52;}</style></defs><path d="M35,20.1v19H54v-19Zm16,16H38v-13H51Z" transform="translate(-2 -20.1)"></path><rect class="a" x="36" y="3" width="13" height="13"></rect><path d="M138,20.1v19h19v-19Zm16,16H141v-13h13Z" transform="translate(-2 -20.1)"></path><rect class="a" x="139" y="3" width="13" height="13"></rect><path d="M173,89.1v-17H156v-17H138v-16H122v16H70v-16H54v16H36v17H19v17H2v51H19v-33H36v33H53v-17h86v17h17v-33h17v33h17v-51Zm14,48H176v-33H153v33H142v-17H50v17H39v-33H16v33H5v-45H22v-17H39v-17H57v-16H67v16h58v-16h10v16h18v17h17v17h17Z" transform="translate(-2 -20.1)"></path><path d="M53,140.1v18H87v-18Zm31,15H56v-12H84Z" transform="translate(-2 -20.1)"></path><path d="M105,140.1v18h34v-18Zm31,15H108v-12h28Z" transform="translate(-2 -20.1)"></path><path d="M50,69.1v23H74v-23Zm21,20H53v-17H71Z" transform="translate(-2 -20.1)"></path><path d="M118,69.1v23h24v-23Zm21,20H121v-17h18Z" transform="translate(-2 -20.1)"></path><path class="a" d="M170,92.1v-17H153v-17H135v-16H125v16H67v-16H57v16H39v17H22v17H5v45H16v-33H39v33H50v-17h92v17h11v-33h23v33h11v-45ZM50,69.1H74v23H50Zm68,23v-23h24v23Z" transform="translate(-2 -20.1)"></path><rect class="a" x="54" y="123" width="28" height="12"></rect><rect class="a" x="106" y="123" width="28" height="12"></rect></svg></svg></g></svg>